<svg id="logo" xmlns="http://www.w3.org/2000/svg" width="87.925" height="108.291" viewBox="0 0 87.925 108.291">
  <path id="Path_443" data-name="Path 443" d="M-41.832,0H-43.19V-10.031h1.358Zm3.388-10.031a.609.609,0,0,1,.27.046.7.7,0,0,1,.2.185l5.81,7.56q-.021-.182-.028-.353t-.007-.333v-7.105h1.19V0H-31.7a.584.584,0,0,1-.27-.056.681.681,0,0,1-.214-.189l-5.8-7.553q.014.175.021.343t.007.308V0h-1.19V-10.031Zm16.716,0V-8.89h-3.241V0h-1.358V-8.89h-3.255v-1.141Zm7.609,0v1.106h-4.816v3.332h3.9v1.064h-3.9v3.423h4.816V0H-20.3V-10.031Zm3.444,5.845V0h-1.351V-10.031h2.835a6.194,6.194,0,0,1,1.645.193A3.139,3.139,0,0,1-6.4-9.282a2.228,2.228,0,0,1,.669.878,2.936,2.936,0,0,1,.217,1.151,2.887,2.887,0,0,1-.168.994,2.625,2.625,0,0,1-.486.829,2.911,2.911,0,0,1-.777.627,3.846,3.846,0,0,1-1.039.392,1.434,1.434,0,0,1,.448.427L-4.613,0h-1.2a.594.594,0,0,1-.546-.287l-2.6-3.584a.758.758,0,0,0-.259-.241.934.934,0,0,0-.42-.074Zm0-.987h1.421a3.46,3.46,0,0,0,1.047-.143,2.129,2.129,0,0,0,.756-.406,1.684,1.684,0,0,0,.458-.627,2.046,2.046,0,0,0,.154-.8,1.6,1.6,0,0,0-.592-1.351,2.859,2.859,0,0,0-1.76-.455h-1.484ZM5.1,0H4.053a.452.452,0,0,1-.294-.091.56.56,0,0,1-.168-.231L2.653-2.744h-4.5L-2.786-.322A.547.547,0,0,1-2.954-.1a.447.447,0,0,1-.294.1H-4.3L-.287-10.031H1.092ZM-1.47-3.724H2.275L.7-7.805A7.627,7.627,0,0,1,.4-8.75q-.077.287-.151.528T.105-7.8ZM13.146-2.072a.281.281,0,0,1,.2.091l.532.581A4.291,4.291,0,0,1,12.387-.287a5.1,5.1,0,0,1-2.117.4A4.985,4.985,0,0,1,8.3-.263,4.311,4.311,0,0,1,6.8-1.312a4.746,4.746,0,0,1-.966-1.621,6.053,6.053,0,0,1-.343-2.079,5.69,5.69,0,0,1,.367-2.079A4.75,4.75,0,0,1,6.888-8.715,4.62,4.62,0,0,1,8.481-9.768a5.421,5.421,0,0,1,2.048-.375,4.829,4.829,0,0,1,1.907.343,4.821,4.821,0,0,1,1.425.931l-.441.623a.481.481,0,0,1-.112.116.308.308,0,0,1-.182.045.354.354,0,0,1-.193-.066q-.1-.067-.241-.165t-.329-.21a2.883,2.883,0,0,0-.448-.21,3.7,3.7,0,0,0-.6-.165,4.19,4.19,0,0,0-.791-.066,3.819,3.819,0,0,0-1.474.276A3.3,3.3,0,0,0,7.9-7.9a3.583,3.583,0,0,0-.753,1.246,4.751,4.751,0,0,0-.27,1.645,4.839,4.839,0,0,0,.27,1.673A3.694,3.694,0,0,0,7.879-2.1a3.1,3.1,0,0,0,1.1.773,3.524,3.524,0,0,0,1.372.266,5.571,5.571,0,0,0,.8-.053,3.306,3.306,0,0,0,.662-.164,2.8,2.8,0,0,0,.567-.284,4.434,4.434,0,0,0,.529-.409A.356.356,0,0,1,13.146-2.072ZM22.5-10.031V-8.89H19.257V0H17.9V-8.89H14.644v-1.141ZM25.536,0H24.178V-10.031h1.358Zm1.526-10.031h1.085a.452.452,0,0,1,.294.091.56.56,0,0,1,.168.231l2.835,7.077a4.965,4.965,0,0,1,.179.518q.081.28.157.581.063-.3.136-.581a4.084,4.084,0,0,1,.172-.518l2.821-7.077a.586.586,0,0,1,.168-.22.437.437,0,0,1,.294-.1h1.092L32.375,0H31.15Zm16.863,0v1.106H39.109v3.332h3.9v1.064h-3.9v3.423h4.816V0H37.744V-10.031ZM-31.023,14.493a7.038,7.038,0,0,1-.477,2.628,6.037,6.037,0,0,1-1.341,2.061,6,6,0,0,1-2.079,1.341A7.305,7.305,0,0,1-37.611,21h-4.968V7.986h4.968a7.245,7.245,0,0,1,2.691.481,6.087,6.087,0,0,1,2.079,1.341A5.989,5.989,0,0,1-31.5,11.865,7.038,7.038,0,0,1-31.023,14.493Zm-2.475,0a5.973,5.973,0,0,0-.288-1.922,4.071,4.071,0,0,0-.819-1.44,3.531,3.531,0,0,0-1.291-.9,4.444,4.444,0,0,0-1.715-.315H-40.14v9.162h2.529a4.444,4.444,0,0,0,1.715-.315,3.531,3.531,0,0,0,1.291-.9,4.071,4.071,0,0,0,.819-1.44A5.973,5.973,0,0,0-33.5,14.493Zm12.582-6.507V9.912h-5.769v3.609h4.545v1.863h-4.545v3.681h5.769V21h-8.208V7.986Zm9.072,2.367a.668.668,0,0,1-.229.279.577.577,0,0,1-.31.081.789.789,0,0,1-.405-.139q-.225-.14-.531-.311a4.336,4.336,0,0,0-.715-.311A3.007,3.007,0,0,0-15,9.813a2.844,2.844,0,0,0-.877.122,1.858,1.858,0,0,0-.63.337,1.349,1.349,0,0,0-.382.517,1.7,1.7,0,0,0-.126.662,1.15,1.15,0,0,0,.257.765,2.142,2.142,0,0,0,.679.522,6.306,6.306,0,0,0,.963.387q.54.171,1.1.365a10.617,10.617,0,0,1,1.1.45,3.821,3.821,0,0,1,.963.648,2.937,2.937,0,0,1,.68.958,3.329,3.329,0,0,1,.257,1.377,4.486,4.486,0,0,1-.3,1.652,3.81,3.81,0,0,1-.882,1.341,4.154,4.154,0,0,1-1.418.9,5.219,5.219,0,0,1-1.917.328,6.181,6.181,0,0,1-1.224-.122,6.443,6.443,0,0,1-1.156-.346,6.038,6.038,0,0,1-1.035-.54,5.093,5.093,0,0,1-.86-.7l.7-1.161a.9.9,0,0,1,.239-.212.582.582,0,0,1,.311-.086.859.859,0,0,1,.486.184q.261.184.616.41a4.731,4.731,0,0,0,.837.41,3.236,3.236,0,0,0,1.156.184,2.374,2.374,0,0,0,1.6-.49,1.761,1.761,0,0,0,.567-1.409,1.308,1.308,0,0,0-.257-.837,2.071,2.071,0,0,0-.679-.544,5.073,5.073,0,0,0-.963-.373q-.54-.153-1.1-.333a9.468,9.468,0,0,1-1.1-.432,3.557,3.557,0,0,1-.963-.657,2.989,2.989,0,0,1-.68-1.012,3.859,3.859,0,0,1-.256-1.5A3.547,3.547,0,0,1-19,10.191a3.548,3.548,0,0,1,.828-1.2,4.087,4.087,0,0,1,1.337-.837,4.865,4.865,0,0,1,1.809-.315,6.071,6.071,0,0,1,2.124.36A4.8,4.8,0,0,1-11.25,9.21ZM-6.435,21h-2.43V7.986h2.43Zm8.9-1.782a6.057,6.057,0,0,0,1.427-.149,6.009,6.009,0,0,0,1.156-.41V16.293H3.42a.509.509,0,0,1-.369-.13.427.427,0,0,1-.135-.319V14.475H7.245V19.74a7.15,7.15,0,0,1-1.03.625,6.581,6.581,0,0,1-1.143.437,8.755,8.755,0,0,1-1.3.257,12.23,12.23,0,0,1-1.494.085,6.787,6.787,0,0,1-2.619-.495,6.222,6.222,0,0,1-2.07-1.377,6.27,6.27,0,0,1-1.364-2.106,7.121,7.121,0,0,1-.49-2.673A7.351,7.351,0,0,1-3.789,11.8,6.071,6.071,0,0,1-2.435,9.7,6.047,6.047,0,0,1-.306,8.328,7.7,7.7,0,0,1,2.5,7.842a7.321,7.321,0,0,1,2.758.472A6.362,6.362,0,0,1,7.236,9.543l-.7,1.1a.624.624,0,0,1-.549.333.817.817,0,0,1-.441-.144q-.288-.171-.589-.342a3.988,3.988,0,0,0-.666-.3,5.429,5.429,0,0,0-.819-.207A6.03,6.03,0,0,0,2.421,9.9a4.492,4.492,0,0,0-1.741.324,3.684,3.684,0,0,0-1.328.927A4.178,4.178,0,0,0-1.494,12.6a5.678,5.678,0,0,0-.3,1.89,5.907,5.907,0,0,0,.315,2,4.2,4.2,0,0,0,.882,1.481,3.8,3.8,0,0,0,1.35.923A4.484,4.484,0,0,0,2.466,19.218ZM10.773,7.986a2.239,2.239,0,0,1,.27.014.633.633,0,0,1,.194.054.649.649,0,0,1,.166.117,1.876,1.876,0,0,1,.18.2l6.831,8.7q-.036-.315-.049-.617t-.014-.562V7.986h2.133V21H19.233a1.109,1.109,0,0,1-.477-.09,1.062,1.062,0,0,1-.369-.324l-6.8-8.667q.027.288.041.571t.013.517V21H9.5V7.986Zm20.547,0V9.912H25.551v3.609H30.1v1.863H25.551v3.681H31.32V21H23.112V7.986Zm4.6,7.929V21H33.5V7.986h3.969a8.29,8.29,0,0,1,2.281.274,4.347,4.347,0,0,1,1.557.769,2.971,2.971,0,0,1,.891,1.184,4.146,4.146,0,0,1,.09,2.759,3.594,3.594,0,0,1-.558,1.062,3.761,3.761,0,0,1-.9.837,4.718,4.718,0,0,1-1.219.576,2.4,2.4,0,0,1,.792.747L43.659,21H41.481a1.063,1.063,0,0,1-.536-.126,1.1,1.1,0,0,1-.374-.36l-2.736-4.167a.96.96,0,0,0-.338-.333,1.182,1.182,0,0,0-.544-.1Zm0-1.737h1.512a3.747,3.747,0,0,0,1.193-.171,2.305,2.305,0,0,0,.837-.472,1.9,1.9,0,0,0,.49-.715,2.474,2.474,0,0,0,.162-.909,1.848,1.848,0,0,0-.652-1.521,3.121,3.121,0,0,0-1.993-.531H35.919Z" transform="translate(44 87.147)" fill="#007ac4"/>
  <path id="Path_1" data-name="Path 1" d="M0,0H87V70.289H0Z" fill="#0890f2"/>
  <path id="Path_442" data-name="Path 442" d="M2.378,0V-12.423a9.054,9.054,0,0,1,1.209-4.653,8.5,8.5,0,0,1,3.465-3.26,11.371,11.371,0,0,1,5.371-1.189,11.16,11.16,0,0,1,2.87.348,10.7,10.7,0,0,1,2.4.943,7.54,7.54,0,0,1,1.865,1.414h.082a8.33,8.33,0,0,1,1.906-1.414,10.613,10.613,0,0,1,2.419-.943,11.4,11.4,0,0,1,2.89-.348,11.371,11.371,0,0,1,5.371,1.189,8.637,8.637,0,0,1,3.485,3.26,8.937,8.937,0,0,1,1.23,4.653V0h-6.4V-12.218a3.513,3.513,0,0,0-.512-1.865,4.125,4.125,0,0,0-1.374-1.373,3.662,3.662,0,0,0-1.968-.533,3.767,3.767,0,0,0-1.989.533,3.888,3.888,0,0,0-1.374,1.373,3.625,3.625,0,0,0-.492,1.865V0H16.482V-12.218a3.513,3.513,0,0,0-.513-1.865,4.065,4.065,0,0,0-1.394-1.373,3.767,3.767,0,0,0-1.988-.533,3.767,3.767,0,0,0-1.989.533,3.889,3.889,0,0,0-1.374,1.373,3.625,3.625,0,0,0-.492,1.865V0ZM52.767-21.525a12.172,12.172,0,0,0-5.945,1.394,9.68,9.68,0,0,0-3.936,3.977,12.5,12.5,0,0,0-1.394,6.027V8.9h6.355V-2.3h.123A6.166,6.166,0,0,0,49.507-.8a7.064,7.064,0,0,0,2.05.963,8.547,8.547,0,0,0,2.4.328A10,10,0,0,0,59.2-.861,9.608,9.608,0,0,0,62.75-4.592a11.508,11.508,0,0,0,1.292-5.576,12.937,12.937,0,0,0-.779-4.551,10.587,10.587,0,0,0-2.235-3.628A9.7,9.7,0,0,0,57.5-20.7,12.786,12.786,0,0,0,52.767-21.525Zm0,5.494a4.444,4.444,0,0,1,2.542.718,4.8,4.8,0,0,1,1.66,1.968,6.46,6.46,0,0,1,.595,2.809,6.327,6.327,0,0,1-.595,2.788A4.823,4.823,0,0,1,55.309-5.8a4.444,4.444,0,0,1-2.542.717A4.543,4.543,0,0,1,50.2-5.8a4.623,4.623,0,0,1-1.66-1.947,6.518,6.518,0,0,1-.574-2.788,6.656,6.656,0,0,1,.574-2.809,4.6,4.6,0,0,1,1.66-1.968A4.543,4.543,0,0,1,52.767-16.031ZM67.814,0V-29.93h6.355v10.291a8.076,8.076,0,0,1,2.706-1.435,10.056,10.056,0,0,1,2.952-.451,9.065,9.065,0,0,1,4.859,1.23,7.757,7.757,0,0,1,2.993,3.362,11.219,11.219,0,0,1,1,4.838V0H82.328V-11.849a4.024,4.024,0,0,0-.553-2.111A4.24,4.24,0,0,0,80.3-15.437a3.871,3.871,0,0,0-2.03-.553,4.1,4.1,0,0,0-2.05.533,4.078,4.078,0,0,0-1.5,1.435,3.84,3.84,0,0,0-.553,2.05V0Z" transform="translate(-2 61.392)" fill="#fff"/>
</svg>
