<svg xmlns="http://www.w3.org/2000/svg" width="42.714" height="46" viewBox="0 0 42.714 46">
  <g id="immersion" transform="translate(-1 -2)" opacity="0.44">
    <path id="Path_48" data-name="Path 48" d="M27.929,2H24.643A1.648,1.648,0,0,0,23,3.643v.3a18.4,18.4,0,0,1,6.571,0v-.3A1.648,1.648,0,0,0,27.929,2Z" transform="translate(-3.929)" fill="#9fdaf2"/>
    <path id="Path_49" data-name="Path 49" d="M4.36,20h-.9A2.472,2.472,0,0,0,1,22.464v6.571A2.472,2.472,0,0,0,3.464,31.5h.9A18.915,18.915,0,0,1,4.36,20Z" transform="translate(0 -3.214)" fill="#9fdaf2"/>
    <path id="Path_50" data-name="Path 50" d="M8.294,50.1A4.107,4.107,0,0,0,5,54.125v2.464h6.6A8.181,8.181,0,0,1,8.294,50.1Z" transform="translate(-0.714 -8.589)" fill="#9fdaf2"/>
    <path id="Path_51" data-name="Path 51" d="M44.272,50.1a8.181,8.181,0,0,1-3.3,6.489h6.6V54.125A4.107,4.107,0,0,0,44.272,50.1Z" transform="translate(-7.138 -8.589)" fill="#9fdaf2"/>
    <path id="Path_52" data-name="Path 52" d="M35.643,48v1.741a4.56,4.56,0,0,1-.772,2.645,5.042,5.042,0,0,1-4.156,2.185H17.571a5.042,5.042,0,0,1-4.156-2.185,4.56,4.56,0,0,1-.772-2.645V48H11v1.643a6.58,6.58,0,0,0,6.571,6.571H30.714a6.58,6.58,0,0,0,6.571-6.571V48Z" transform="translate(-1.786 -8.214)" fill="#9fdaf2"/>
    <path id="Path_53" data-name="Path 53" d="M32.546,48a18.811,18.811,0,0,1-15.377,0H15v1.741a3.051,3.051,0,0,0,.476,1.717,3.484,3.484,0,0,0,2.809,1.47H31.428a3.484,3.484,0,0,0,2.809-1.47,3.051,3.051,0,0,0,.476-1.717V48Z" transform="translate(-2.5 -8.214)" fill="#9fdaf2"/>
    <path id="Path_54" data-name="Path 54" d="M23.794,6.026a7.961,7.961,0,0,0-1.084,0,17.234,17.234,0,0,0,0,34.451,7.959,7.959,0,0,0,1.084,0,17.234,17.234,0,0,0,0-34.451Zm9.331,6.185a.818.818,0,0,1,1.158,0,.828.828,0,0,1,0,1.166.818.818,0,0,1-1.158,0A.828.828,0,0,1,33.125,12.211ZM23.252,7.644a.821.821,0,1,1-.821.821A.824.824,0,0,1,23.252,7.644Zm-11.04,4.567a.818.818,0,0,1,1.158,0,.828.828,0,0,1,0,1.166.818.818,0,0,1-1.158,0A.828.828,0,0,1,12.212,12.211ZM8.466,24.073a.821.821,0,1,1,.821-.821A.824.824,0,0,1,8.466,24.073Zm4.912,10.21a.822.822,0,1,1,0-1.158A.818.818,0,0,1,13.378,34.283Zm9.874,4.575a.821.821,0,1,1,.821-.821A.824.824,0,0,1,23.252,38.858Zm11.04-4.575a.822.822,0,1,1,0-1.158A.826.826,0,0,1,34.292,34.283Zm-11.04,2.111A13.143,13.143,0,1,1,36.395,23.251,13.139,13.139,0,0,1,23.252,36.394ZM38.038,24.073a.821.821,0,1,1,.821-.821A.824.824,0,0,1,38.038,24.073Z" transform="translate(-0.895 -0.716)" fill="#9fdaf2"/>
    <path id="Path_55" data-name="Path 55" d="M49.805,20h-.9a18.915,18.915,0,0,1,0,11.5h.9a2.472,2.472,0,0,0,2.464-2.464V22.464A2.472,2.472,0,0,0,49.805,20Z" transform="translate(-8.555 -3.214)" fill="#9fdaf2"/>
    <path id="Path_56" data-name="Path 56" d="M24.5,13A11.5,11.5,0,1,0,36,24.5,11.5,11.5,0,0,0,24.5,13Zm0,21.357A9.857,9.857,0,1,1,34.357,24.5,9.854,9.854,0,0,1,24.5,34.357Z" transform="translate(-2.143 -1.964)" fill="#9fdaf2"/>
  </g>
</svg>
