<svg xmlns="http://www.w3.org/2000/svg" width="44" height="55.326" viewBox="0 0 44 55.326">
  <path id="Path_3" data-name="Path 3" d="M56.334,27.821c-1.529,4.039-6.285,9.3-6.285,9.3l3.3-.019c-.777,1.423-3.17,5.824-7.313,5.824-4.967,0-5.759-5.566-5.759-13.2V15.936h8.543l3.106-4.464H40.045l.006-10.094-2.558,0-2.557,0,.005,10.094H23.066l3.106,4.464h8.543V29.721c0,7.636-.793,13.2-5.761,13.2-4.141,0-6.535-4.4-7.311-5.824l3.3.019s-4.757-5.258-6.286-9.3c-3.013,5.233-3.158,12.19-3.158,12.19L18.147,38.2s2.043,6.059,6.343,9c1.635,1.116,5.808,3.106,7.555,4.272A37.114,37.114,0,0,1,37.494,56.7a37.146,37.146,0,0,1,5.448-5.238c1.747-1.166,5.921-3.156,7.556-4.272,4.3-2.937,6.343-9,6.343-9l2.653,1.813S59.347,33.055,56.334,27.821Z" transform="translate(-15.494 -1.378)" fill="#9fdaf2" opacity="0.35"/>
</svg>
