<svg id="compass" xmlns="http://www.w3.org/2000/svg" width="32" height="31.999" viewBox="0 0 32 31.999">
  <g id="Group_14" data-name="Group 14">
    <g id="Group_13" data-name="Group 13">
      <path id="Path_11" data-name="Path 11" d="M28.533,0a3.47,3.47,0,0,0-3.37,2.667H.534a.534.534,0,0,0-.477.772L1.546,6.421.043,9.927a.531.531,0,0,0,0,.42l1.51,3.524L.044,17.394a.531.531,0,0,0,0,.42l1.51,3.524L.044,24.86a.531.531,0,0,0,0,.42l1.492,3.483L.076,31.2A.533.533,0,0,0,.534,32H28.267A3.738,3.738,0,0,0,32,28.27V3.471A3.471,3.471,0,0,0,28.533,0Zm2.4,28.266a2.67,2.67,0,0,1-2.667,2.667H1.476l1.115-1.859a.534.534,0,0,0,.033-.484L1.114,25.07l1.51-3.523a.531.531,0,0,0,0-.42L1.114,17.6l1.51-3.523a.531.531,0,0,0,0-.42l-1.51-3.524,1.51-3.523a.534.534,0,0,0-.013-.449L1.4,3.737h23.67V27.2a2.646,2.646,0,0,0,2.619,2.667,2.224,2.224,0,0,0,2.2-2.24,1.886,1.886,0,0,0-1.868-1.9V26.8a.818.818,0,0,1,.8.832A1.156,1.156,0,0,1,27.686,28.8a1.579,1.579,0,0,1-1.553-1.6,2.107,2.107,0,0,1,2.074-2.133,2.767,2.767,0,0,1,2.726,2.8Zm0-3.082A3.744,3.744,0,0,0,28.208,24a3.092,3.092,0,0,0-2.074.8V3.471a2.4,2.4,0,1,1,4.8,0Z" transform="translate(0 -0.004)" fill="#c8e3f2"/>
    </g>
  </g>
  <g id="Group_16" data-name="Group 16" transform="translate(18.667 18.156)">
    <g id="Group_15" data-name="Group 15">
      <path id="Path_12" data-name="Path 12" d="M285.312,279.617l-.695-1.955h.193a.534.534,0,0,0,.477-.772l-2.133-4.267a.555.555,0,0,0-.954,0l-2.133,4.267a.534.534,0,0,0,.477.772h.193l-.695,1.955a.533.533,0,0,0,.5.712h1.6v1.6h1.067v-1.6h1.6a.533.533,0,0,0,.5-.712Zm-4.013-.355.695-1.955a.533.533,0,0,0-.5-.712h-.085l1.27-2.541,1.27,2.541h-.085a.533.533,0,0,0-.5.712l.695,1.955Z" transform="translate(-280.009 -272.352)" fill="#c8e3f2"/>
    </g>
  </g>
  <g id="Group_18" data-name="Group 18" transform="translate(5.334 14.933)">
    <g id="Group_17" data-name="Group 17">
      <path id="Path_13" data-name="Path 13" d="M87.445,229.169l-1.6-4.8a.533.533,0,0,0-1.012,0l-1.094,3.282-1.094-3.282a.534.534,0,0,0-1.012,0l-1.6,4.8a.534.534,0,0,0,.506.7h1.067v1.6h1.067v-1.6h2.133v1.6h1.067v-1.6h1.067a.534.534,0,0,0,.506-.7Zm-6.166-.365.86-2.58L83,228.8Zm3.2,0,.86-2.58.86,2.58Z" transform="translate(-80.005 -224.004)" fill="#c8e3f2"/>
    </g>
  </g>
  <g id="Group_20" data-name="Group 20" transform="translate(3.734 4.8)">
    <g id="Group_19" data-name="Group 19">
      <path id="Path_14" data-name="Path 14" d="M60.245,77.169l-1.6-4.8a.534.534,0,0,0-1.012,0l-1.6,4.8a.533.533,0,0,0,.506.7h1.067v1.6h1.067v-1.6h1.067a.533.533,0,0,0,.506-.7ZM57.278,76.8l.86-2.58L59,76.8Z" transform="translate(-56.005 -72.004)" fill="#c8e3f2"/>
    </g>
  </g>
  <g id="Group_22" data-name="Group 22" transform="translate(16.533 5.333)">
    <g id="Group_21" data-name="Group 21">
      <path id="Path_15" data-name="Path 15" d="M254.093,83.735l1.223-1.223a.533.533,0,0,0,0-.754l-1.6-1.6a.533.533,0,0,0-.754,0l-1.223,1.223-1.223-1.223a.533.533,0,0,0-.754,0l-1.6,1.6a.533.533,0,0,0,0,.754l1.223,1.223-1.223,1.223a.533.533,0,0,0,0,.754l1.6,1.6a.533.533,0,0,0,.754,0l1.223-1.223,1.223,1.223a.533.533,0,0,0,.754,0l1.6-1.6a.533.533,0,0,0,0-.754Zm-.754,2.446-1.223-1.223a.533.533,0,0,0-.754,0l-1.223,1.223-.846-.846,1.223-1.223a.533.533,0,0,0,0-.754l-1.223-1.223.846-.846,1.223,1.223a.533.533,0,0,0,.754,0l1.223-1.223.846.846-1.223,1.223a.533.533,0,0,0,0,.754l1.223,1.223Z" transform="translate(-248.006 -80.002)" fill="#c8e3f2"/>
    </g>
  </g>
  <g id="Group_24" data-name="Group 24" transform="translate(3.89 25.756)">
    <g id="Group_23" data-name="Group 23">
      <path id="Path_16" data-name="Path 16" d="M62.306,387.1l-.754-.754-1.223,1.223-1.223-1.223-.754.754,1.223,1.223-1.223,1.223.754.754,1.223-1.223,1.223,1.223.754-.754-1.223-1.223Z" transform="translate(-58.352 -386.348)" fill="#c8e3f2"/>
    </g>
  </g>
  <g id="Group_26" data-name="Group 26" transform="translate(11.76 25.484)">
    <g id="Group_25" data-name="Group 25">
      <path id="Path_17" data-name="Path 17" d="M177.279,382.268c-.278.184-.572.359-.871.519l.5.942c.331-.176.654-.369.962-.573Z" transform="translate(-176.408 -382.268)" fill="#c8e3f2"/>
    </g>
  </g>
  <g id="Group_28" data-name="Group 28" transform="translate(12.486 8.149)">
    <g id="Group_27" data-name="Group 27">
      <path id="Path_18" data-name="Path 18" d="M188.4,122.244a10.823,10.823,0,0,0-1.105.2l.251,1.036a9.8,9.8,0,0,1,1-.179Z" transform="translate(-187.296 -122.244)" fill="#c8e3f2"/>
    </g>
  </g>
  <g id="Group_30" data-name="Group 30" transform="translate(10.591 12.528)">
    <g id="Group_29" data-name="Group 29">
      <path id="Path_19" data-name="Path 19" d="M159.664,187.932l-.792.715a4.793,4.793,0,0,0,.913.774l.591-.887A3.758,3.758,0,0,1,159.664,187.932Z" transform="translate(-158.872 -187.932)" fill="#c8e3f2"/>
    </g>
  </g>
  <g id="Group_32" data-name="Group 32" transform="translate(12.501 13.607)">
    <g id="Group_31" data-name="Group 31">
      <path id="Path_20" data-name="Path 20" d="M188.367,204.3l-.385-.182-.462.962.4.187c.188.087.377.175.562.268l.475-.955C188.759,204.481,188.564,204.389,188.367,204.3Z" transform="translate(-187.52 -204.116)" fill="#c8e3f2"/>
    </g>
  </g>
  <g id="Group_34" data-name="Group 34" transform="translate(9.807 10.813)">
    <g id="Group_33" data-name="Group 33">
      <path id="Path_21" data-name="Path 21" d="M148.178,162.872c0-.046-.007-.092-.007-.138a1.469,1.469,0,0,1,.034-.311l-1.042-.227a2.516,2.516,0,0,0-.058.538,2.365,2.365,0,0,0,.012.246,2.612,2.612,0,0,0,.117.547l1.013-.332A1.523,1.523,0,0,1,148.178,162.872Z" transform="translate(-147.104 -162.196)" fill="#c8e3f2"/>
    </g>
  </g>
  <g id="Group_36" data-name="Group 36" transform="translate(9.887 26.435)">
    <g id="Group_35" data-name="Group 35">
      <path id="Path_22" data-name="Path 22" d="M149.266,396.532c-.311.13-.632.245-.954.343l.311,1.02c.355-.108.709-.235,1.052-.378Z" transform="translate(-148.312 -396.532)" fill="#c8e3f2"/>
    </g>
  </g>
  <g id="Group_38" data-name="Group 38" transform="translate(10.415 8.803)">
    <g id="Group_37" data-name="Group 37">
      <path id="Path_23" data-name="Path 23" d="M157.155,132.052a3.542,3.542,0,0,0-.923.844l.85.645a2.469,2.469,0,0,1,.643-.588Z" transform="translate(-156.232 -132.052)" fill="#c8e3f2"/>
    </g>
  </g>
  <g id="Group_40" data-name="Group 40" transform="translate(7.906 27.027)">
    <g id="Group_39" data-name="Group 39">
      <path id="Path_24" data-name="Path 24" d="M119.591,405.412a9.347,9.347,0,0,1-1,.145l.1,1.062a10.635,10.635,0,0,0,1.112-.162Z" transform="translate(-118.592 -405.412)" fill="#c8e3f2"/>
    </g>
  </g>
  <g id="Group_42" data-name="Group 42" transform="translate(15.751 20.751)">
    <g id="Group_41" data-name="Group 41">
      <path id="Path_25" data-name="Path 25" d="M236.517,311.268c-.013.072-.028.144-.043.215a6.178,6.178,0,0,1-.21.732l1.005.356a7.091,7.091,0,0,0,.246-.859c.018-.083.035-.167.051-.252Z" transform="translate(-236.264 -311.268)" fill="#c8e3f2"/>
    </g>
  </g>
  <g id="Group_44" data-name="Group 44" transform="translate(16.066 18.657)">
    <g id="Group_43" data-name="Group 43">
      <path id="Path_26" data-name="Path 26" d="M242.059,279.86l-1.059.129a6.432,6.432,0,0,1,.045.771c0,.071,0,.142,0,.212l1.066.036c0-.084,0-.167,0-.25A7.577,7.577,0,0,0,242.059,279.86Z" transform="translate(-241 -279.86)" fill="#c8e3f2"/>
    </g>
  </g>
  <g id="Group_46" data-name="Group 46" transform="translate(14.686 7.996)">
    <g id="Group_45" data-name="Group 45">
      <path id="Path_27" data-name="Path 27" d="M221.378,119.948c-.321,0-.694.014-1.082.042l.076,1.063c.362-.025.71-.039,1.029-.039Z" transform="translate(-220.296 -119.948)" fill="#c8e3f2"/>
    </g>
  </g>
  <g id="Group_48" data-name="Group 48" transform="translate(14.821 22.596)">
    <g id="Group_47" data-name="Group 47">
      <path id="Path_28" data-name="Path 28" d="M222.843,338.948a7.129,7.129,0,0,1-.531.836l.859.633a8.09,8.09,0,0,0,.611-.963Z" transform="translate(-222.312 -338.948)" fill="#c8e3f2"/>
    </g>
  </g>
  <g id="Group_50" data-name="Group 50" transform="translate(14.309 14.646)">
    <g id="Group_49" data-name="Group 49">
      <path id="Path_29" data-name="Path 29" d="M215.734,220.08a4.508,4.508,0,0,0-.478-.388l-.616.871a3.4,3.4,0,0,1,.365.3,4.157,4.157,0,0,1,.317.334l.815-.687A4.973,4.973,0,0,0,215.734,220.08Z" transform="translate(-214.64 -219.692)" fill="#c8e3f2"/>
    </g>
  </g>
  <g id="Group_52" data-name="Group 52" transform="translate(15.515 16.443)">
    <g id="Group_51" data-name="Group 51">
      <path id="Path_30" data-name="Path 30" d="M233.675,246.66l-.947.492a5.009,5.009,0,0,1,.356.893l1.023-.3A6.08,6.08,0,0,0,233.675,246.66Z" transform="translate(-232.728 -246.66)" fill="#c8e3f2"/>
    </g>
  </g>
  <g id="Group_54" data-name="Group 54" transform="translate(13.441 24.194)">
    <g id="Group_53" data-name="Group 53">
      <path id="Path_31" data-name="Path 31" d="M202.359,362.924a8.692,8.692,0,0,1-.735.686l.682.82a9.972,9.972,0,0,0,.825-.769Z" transform="translate(-201.624 -362.924)" fill="#c8e3f2"/>
    </g>
  </g>
</svg>
