<svg id="icon-skull" xmlns="http://www.w3.org/2000/svg" width="32" height="32" viewBox="0 0 32 32">
  <g id="Group_2" data-name="Group 2" transform="translate(15.375 3.37)">
    <g id="Group_1" data-name="Group 1">
      <path id="Path_5" data-name="Path 5" d="M246.655,53.989h-.026a.625.625,0,0,0,0,1.25h.026a.625.625,0,0,0,0-1.25Z" transform="translate(-246.004 -53.989)" fill="#9fdaf2"/>
    </g>
  </g>
  <g id="Group_4" data-name="Group 4" transform="translate(11.143 24.808)">
    <g id="Group_3" data-name="Group 3">
      <path id="Path_6" data-name="Path 6" d="M187.387,396.868h-8.481a.625.625,0,0,0-.625.625,3.462,3.462,0,0,0,3.457,3.458h2.816a3.462,3.462,0,0,0,3.457-3.458A.625.625,0,0,0,187.387,396.868Zm-2.832,2.833h-2.816a2.212,2.212,0,0,1-2.118-1.583h7.052A2.212,2.212,0,0,1,184.555,399.7Z" transform="translate(-178.281 -396.868)" fill="#9fdaf2"/>
    </g>
  </g>
  <g id="Group_6" data-name="Group 6" transform="translate(16.396 11.057)">
    <g id="Group_5" data-name="Group 5">
      <path id="Path_7" data-name="Path 7" d="M266.741,176.945h-1.989a2.424,2.424,0,0,0-2.421,2.422v1.594a2.424,2.424,0,0,0,2.421,2.422h1.989a2.424,2.424,0,0,0,2.421-2.422v-1.594A2.424,2.424,0,0,0,266.741,176.945Zm1.171,4.016a1.173,1.173,0,0,1-1.171,1.172h-1.989a1.173,1.173,0,0,1-1.171-1.172v-1.594h0a1.173,1.173,0,0,1,1.171-1.172h1.989a1.173,1.173,0,0,1,1.171,1.172Z" transform="translate(-262.331 -176.945)" fill="#9fdaf2"/>
    </g>
  </g>
  <g id="Group_8" data-name="Group 8" transform="translate(8.773 11.057)">
    <g id="Group_7" data-name="Group 7">
      <path id="Path_8" data-name="Path 8" d="M144.784,176.945H142.8a2.424,2.424,0,0,0-2.421,2.422v1.594a2.424,2.424,0,0,0,2.421,2.422h1.989a2.424,2.424,0,0,0,2.421-2.422v-1.594A2.424,2.424,0,0,0,144.784,176.945Zm1.171,4.016a1.173,1.173,0,0,1-1.171,1.172H142.8a1.173,1.173,0,0,1-1.171-1.172v-1.594A1.173,1.173,0,0,1,142.8,178.2h1.989a1.173,1.173,0,0,1,1.171,1.172Z" transform="translate(-140.374 -176.945)" fill="#9fdaf2"/>
    </g>
  </g>
  <g id="Group_10" data-name="Group 10">
    <g id="Group_9" data-name="Group 9">
      <path id="Path_9" data-name="Path 9" d="M30.693,24.968a1.839,1.839,0,0,0-2.6,0l-.284.284-5.035-5.037a3.975,3.975,0,0,0,2.974-3.842V13.217A9.716,9.716,0,0,0,25.08,9.66l2.728-2.729.3.3a1.839,1.839,0,0,0,2.6,0l.757-.757a1.84,1.84,0,0,0,0-2.6L30.7,3.111a1.825,1.825,0,0,0-1.182-.535,1.827,1.827,0,0,0-.535-1.183L28.231.636a1.839,1.839,0,0,0-2.6,0l-.757.757a1.84,1.84,0,0,0,0,2.6l.284.284L23,6.436a9.809,9.809,0,0,0-4.323-2.6.625.625,0,0,0-.343,1.2A8.533,8.533,0,0,1,24.5,13.217v3.156a2.721,2.721,0,0,1-2.718,2.719h-.594a.625.625,0,0,0-.625.625v1.438a1.251,1.251,0,0,1-1.25,1.25H19.03V21.123a.625.625,0,1,0-1.25,0V22.4H16.625V21.123a.625.625,0,1,0-1.25,0V22.4H14.219V21.123a.625.625,0,1,0-1.25,0V22.4h-.156a1.251,1.251,0,0,1-1.25-1.25V19.717a.625.625,0,0,0-.625-.625h-.719A2.721,2.721,0,0,1,7.5,16.373V13.217a8.5,8.5,0,0,1,1.96-5.434.627.627,0,0,0,.065-.077,8.478,8.478,0,0,1,3.76-2.547.625.625,0,0,0-.4-1.185A9.726,9.726,0,0,0,9,6.433L6.842,4.279l.284-.284a1.84,1.84,0,0,0,0-2.6L6.37.636a1.839,1.839,0,0,0-2.6,0l-.757.757a1.827,1.827,0,0,0-.535,1.183A1.825,1.825,0,0,0,1.3,3.111l-.757.757a1.84,1.84,0,0,0,0,2.6l.757.757a1.839,1.839,0,0,0,2.6,0l.3-.3,2.73,2.731a9.755,9.755,0,0,0-.668,3.555v3.156a3.976,3.976,0,0,0,2.973,3.843L4.192,25.253l-.284-.284a1.839,1.839,0,0,0-2.6,0l-.757.757a1.842,1.842,0,0,0,0,2.6l.757.757a1.825,1.825,0,0,0,1.183.535A1.833,1.833,0,0,0,3.024,30.8l.757.757a1.841,1.841,0,0,0,2.6,0l.757-.757a1.842,1.842,0,0,0,0-2.6l-.3-.3L8.186,26.56a.625.625,0,1,0-.884-.884L5.517,27.463a.625.625,0,0,0,0,.884l.737.738a.59.59,0,0,1,0,.834l-.757.757a.59.59,0,0,1-.834,0l-.757-.757a.59.59,0,0,1,0-.834.625.625,0,0,0-.884-.884.59.59,0,0,1-.834,0l-.757-.757a.591.591,0,0,1,0-.834l.757-.757a.589.589,0,0,1,.834,0l.726.726a.625.625,0,0,0,.884,0L10.314,20.9v.259a2.5,2.5,0,0,0,2.5,2.5h6.5a2.482,2.482,0,0,0,1.257-.341L25.157,27.9l-.3.3a1.842,1.842,0,0,0,0,2.6l.757.757a1.841,1.841,0,0,0,2.6,0l.757-.757a1.833,1.833,0,0,0,.534-1.183,1.825,1.825,0,0,0,1.183-.535l.757-.757a1.842,1.842,0,0,0,0-2.6ZM23.815,7.39l2.668-2.669a.625.625,0,0,0,0-.884l-.726-.726a.59.59,0,0,1,0-.834l.757-.757a.589.589,0,0,1,.834,0l.757.757a.59.59,0,0,1,0,.834.625.625,0,0,0,.884.884.589.589,0,0,1,.834,0l.757.757a.59.59,0,0,1,0,.834l-.757.757a.589.589,0,0,1-.834,0L28.25,5.6a.625.625,0,0,0-.884,0L24.512,8.461A9.841,9.841,0,0,0,23.815,7.39ZM4.634,5.605a.625.625,0,0,0-.884,0l-.737.738a.589.589,0,0,1-.834,0l-.757-.757a.59.59,0,0,1,0-.834l.757-.757a.589.589,0,0,1,.834,0A.625.625,0,0,0,3.9,3.111a.59.59,0,0,1,0-.834l.757-.757a.589.589,0,0,1,.834,0l.757.757a.59.59,0,0,1,0,.834l-.726.726a.625.625,0,0,0,0,.884L8.183,7.388a9.751,9.751,0,0,0-.694,1.073ZM30.567,27.443l-.757.757a.589.589,0,0,1-.834,0,.625.625,0,0,0-.884.884.59.59,0,0,1,0,.834l-.757.757a.59.59,0,0,1-.834,0l-.757-.757a.59.59,0,0,1,0-.834l.737-.738a.625.625,0,0,0,0-.884l-5.026-5.028a2.485,2.485,0,0,0,.354-1.28v-.134l5.556,5.558a.625.625,0,0,0,.884,0l.726-.726a.589.589,0,0,1,.834,0l.757.757A.591.591,0,0,1,30.567,27.443Z" transform="translate(0 -0.097)" fill="#9fdaf2"/>
    </g>
  </g>
  <g id="Group_12" data-name="Group 12" transform="translate(8.774 23.742)">
    <g id="Group_11" data-name="Group 11">
      <path id="Path_10" data-name="Path 10" d="M141,379.825h0a.625.625,0,1,0,.625.625A.625.625,0,0,0,141,379.825Z" transform="translate(-140.379 -379.825)" fill="#9fdaf2"/>
    </g>
  </g>
</svg>
