<svg xmlns="http://www.w3.org/2000/svg" width="85.893" height="73.424" viewBox="0 0 85.893 73.424">
  <g id="web-design_1_" data-name="web-design (1)" transform="translate(-8 -48)">
    <path id="Path_439" data-name="Path 439" d="M89.044,48h-76.2A4.854,4.854,0,0,0,8,52.849v51.258a4.854,4.854,0,0,0,4.849,4.849H39.614l-.925,5.541H32.937a1.385,1.385,0,0,0-1.385,1.385v2.771H26.01a1.385,1.385,0,0,0,0,2.771H75.883a1.385,1.385,0,1,0,0-2.771H70.341v-2.771a1.385,1.385,0,0,0-1.385-1.385H63.2l-.925-5.541H89.044a4.854,4.854,0,0,0,4.849-4.849V52.849A4.854,4.854,0,0,0,89.044,48ZM67.571,117.268v1.385H34.322v-1.385ZM41.5,114.5l.925-5.541H59.47l.925,5.541Zm49.624-10.39a2.08,2.08,0,0,1-2.078,2.078h-76.2a2.08,2.08,0,0,1-2.078-2.078v-3.463H91.122ZM44.549,64.624l2.078,4.156H35.87l2.078-4.156Zm-5.216-2.771,1.915-3.829,1.915,3.829Zm7.457,9.7V97.873H45.4V71.551Zm-6.939,0h2.783V97.873H39.863V71.724A1.429,1.429,0,0,0,39.851,71.551Zm-2.746,0a1.43,1.43,0,0,0-.012.173V97.873H35.707V71.551ZM60.644,67.4h5.541v2.771H63.415a1.385,1.385,0,0,0,0,2.771h2.771v2.771H60.644a1.385,1.385,0,1,0,0,2.771h5.541v2.771H63.415a1.385,1.385,0,0,0,0,2.771h2.771V86.79H60.644a1.385,1.385,0,0,0,0,2.771h5.541v2.771H63.415a1.385,1.385,0,1,0,0,2.771h2.771v2.771H55.1V61.854H66.185v2.771H60.644a1.385,1.385,0,1,0,0,2.771ZM91.122,97.873H68.956v-37.4a1.385,1.385,0,0,0-1.385-1.385H53.717a1.385,1.385,0,0,0-1.385,1.385v37.4H49.561V68.78a1.4,1.4,0,0,0-.145-.62L42.489,54.307a1.387,1.387,0,0,0-2.48,0L33.082,68.161a1.4,1.4,0,0,0-.145.62V97.873H10.771V52.849a2.08,2.08,0,0,1,2.078-2.078h76.2a2.08,2.08,0,0,1,2.078,2.078Z" fill="#31adf8"/>
    <path id="Path_440" data-name="Path 440" d="M49.7,360H41.385a1.385,1.385,0,0,0,0,2.771H49.7a1.385,1.385,0,0,0,0-2.771Z" transform="translate(-26.459 -257.971)" fill="#31adf8"/>
    <path id="Path_441" data-name="Path 441" d="M114.771,360h-1.385a1.385,1.385,0,0,0,0,2.771h1.385a1.385,1.385,0,0,0,0-2.771Z" transform="translate(-85.99 -257.971)" fill="#31adf8"/>
  </g>
</svg>
