<svg id="Icon_Lighthouse" data-name="Icon Lighthouse" xmlns="http://www.w3.org/2000/svg" width="32" height="32" viewBox="0 0 32 32">
  <path id="Path_4" data-name="Path 4" d="M20.637,2.406a.476.476,0,0,0,.074.006.469.469,0,0,0,.462-.4L21.408.543A.469.469,0,0,0,20.482.4L20.248,1.87A.469.469,0,0,0,20.637,2.406Zm.876,1.122a.469.469,0,0,0,.661.054L23.435,2.51a.469.469,0,0,0-.607-.714L21.566,2.868A.469.469,0,0,0,21.513,3.529Zm1.411.55a.469.469,0,0,0,0,.938l1.493.006h0a.469.469,0,0,0,0-.937l-1.493-.006Zm8.609,26.984H23.511a1.158,1.158,0,0,0,.021-.219v-.937a1.158,1.158,0,0,0-1.156-1.156h-.061L20.875,14A1.157,1.157,0,0,0,22,12.844v-.937a1.158,1.158,0,0,0-1.156-1.156H20.71V7.494h.942a.781.781,0,0,0,.479-1.4L17.407,2.427V1.407a1.406,1.406,0,0,0-2.813,0v1.02L9.871,6.1a.781.781,0,0,0,.479,1.4h.942V10.75h-.385a1.158,1.158,0,0,0-1.156,1.156v.938A1.158,1.158,0,0,0,10.907,14h.219L9.785,27.744a4.979,4.979,0,0,0-2.921.116.469.469,0,0,0,.307.886,5.123,5.123,0,0,1,3.4.177,12.638,12.638,0,0,0,4.12.619,15.2,15.2,0,0,0,1.847-.176,2.55,2.55,0,0,1,1.906.149,2.685,2.685,0,0,1,1.086,1.549H5.289a2.331,2.331,0,0,1,.4-1.312,1.963,1.963,0,0,1,.2-.243.469.469,0,0,0-.674-.651,2.891,2.891,0,0,0-.3.358,3.3,3.3,0,0,0-.572,1.849H.47A.469.469,0,0,0,.47,32H31.532a.469.469,0,1,0,0-.937Zm-16-29.656a.469.469,0,0,1,.938,0v.781h-.938Zm-4.726,5.15,4.418-3.431h1.554L21.2,6.556h-1.57a.469.469,0,0,0,0,.938h.146V10.75H17.817V9.4a.97.97,0,0,0-.969-.969H15.154a.97.97,0,0,0-.969.969v1.35H12.23V7.494h5.521a.469.469,0,1,0,0-.938ZM16.879,9.4v1.35H15.123V9.4a.031.031,0,0,1,.031-.031h1.694A.031.031,0,0,1,16.879,9.4Zm-5.972,3.663a.219.219,0,0,1-.219-.219v-.937a.219.219,0,0,1,.219-.219h9.938a.219.219,0,0,1,.219.219v.938a.219.219,0,0,1-.219.219Zm9.246,3.186-8.731,4.375L12.069,14h7.865Zm-8.839,5.477,8.936-4.478.426,4.363-9.832,4.926Zm7.674,7.024-.051-.034a3.385,3.385,0,0,0-2.532-.28,14.2,14.2,0,0,1-1.738.167,11.874,11.874,0,0,1-3.84-.583l-.125-.035.034-.345,10.037-5.029.6,6.139Zm3.606,2.094a.219.219,0,0,1-.219.219H20.5a4.637,4.637,0,0,0-.587-1.375h2.458a.219.219,0,0,1,.219.219ZM7.586,5.023h0L9.08,5.016a.469.469,0,0,0,0-.937h0l-1.493.006a.469.469,0,0,0,0,.938ZM8.567,2.51,9.829,3.582a.469.469,0,0,0,.607-.714L9.174,1.8a.469.469,0,0,0-.607.714Zm2.262-.493a.469.469,0,0,0,.926-.147L11.52.4a.469.469,0,0,0-.926.147Z" transform="translate(-0.001 0)" fill="#c8e3f2"/>
</svg>
