<svg xmlns="http://www.w3.org/2000/svg" width="85.797" height="80.424" viewBox="0 0 85.797 80.424">
  <g id="rocket" transform="translate(0 -16.032)">
    <path id="Path_429" data-name="Path 429" d="M84.541,195.336h-5.46V149.578a5.292,5.292,0,0,0-5.287-5.287H57.675a1.257,1.257,0,1,0,0,2.514H73.794a2.776,2.776,0,0,1,2.773,2.773v45.758h-4.3a10.561,10.561,0,0,0,.1-1.43,10.672,10.672,0,0,0-10.66-10.66,10.514,10.514,0,0,0-2.357.269,7.948,7.948,0,0,0-7.046-4.3,7.76,7.76,0,0,0-2.813.523,6.63,6.63,0,0,0-13.179,0,7.76,7.76,0,0,0-2.813-.523,7.948,7.948,0,0,0-7.046,4.3,10.5,10.5,0,0,0-2.357-.269,10.672,10.672,0,0,0-10.66,10.66,10.559,10.559,0,0,0,.1,1.43H9.23V149.578A2.776,2.776,0,0,1,12,146.8H28.122a1.257,1.257,0,1,0,0-2.514H12a5.293,5.293,0,0,0-5.287,5.287v45.758H1.257A1.257,1.257,0,0,0,0,196.593v2.687a3.948,3.948,0,0,0,3.943,3.943H81.854a3.948,3.948,0,0,0,3.943-3.943v-2.687A1.257,1.257,0,0,0,84.541,195.336Zm-1.257,3.943a1.431,1.431,0,0,1-1.43,1.43H3.943a1.431,1.431,0,0,1-1.43-1.43v-1.43H18.719a1.257,1.257,0,1,0,0-2.514H16.075a8.068,8.068,0,0,1-.129-1.43,8.127,8.127,0,0,1,10.809-7.691,1.257,1.257,0,0,0,1.6-.781,5.447,5.447,0,0,1,5.14-3.7,5.375,5.375,0,0,1,3.489,1.3,1.257,1.257,0,0,0,2.008-1.337,4.038,4.038,0,0,1-.211-1.22,4.116,4.116,0,0,1,8.233,0,4.038,4.038,0,0,1-.211,1.22,1.257,1.257,0,0,0,2.008,1.337,5.376,5.376,0,0,1,3.489-1.3,5.447,5.447,0,0,1,5.14,3.7,1.257,1.257,0,0,0,1.6.781,8.133,8.133,0,0,1,10.68,9.121H24.093a1.257,1.257,0,1,0,0,2.514H83.284Z" transform="translate(0 -106.766)" fill="#31adf8"/>
    <path id="Path_430" data-name="Path 430" d="M153.532,52.976a5.3,5.3,0,0,0-1.225,3.384v3.914a1.257,1.257,0,0,0,1.874,1.095l8.95-5.05q.512.934,1.085,1.837l-1.125,4.5a1.257,1.257,0,0,0,1.219,1.562h10.746a1.257,1.257,0,0,0,1.219-1.562l-1.125-4.5q.573-.9,1.085-1.837l8.95,5.05a1.257,1.257,0,0,0,1.874-1.095V56.36a5.3,5.3,0,0,0-1.225-3.384l-5.966-7.157a34.3,34.3,0,0,0,.475-5.693,33.73,33.73,0,0,0-2.637-13.168,32.373,32.373,0,0,0-7.141-10.564,1.257,1.257,0,0,0-1.763,0,32.37,32.37,0,0,0-7.141,10.564,33.73,33.73,0,0,0-2.637,13.168,34.3,34.3,0,0,0,.474,5.685Zm1.288,5.146V56.36a2.778,2.778,0,0,1,.643-1.775l4.711-5.653a33.324,33.324,0,0,0,1.833,5.135Zm11.1,3.582.715-2.859h6.1l.715,2.859ZM183.9,54.585a2.778,2.778,0,0,1,.643,1.775v1.762l-7.186-4.055a33.335,33.335,0,0,0,1.833-5.135Zm-14.22-35.493a30.013,30.013,0,0,1,5.174,7.687H164.509A30.014,30.014,0,0,1,169.683,19.092Zm-6.222,10.2H175.9a31.5,31.5,0,0,1,1.925,10.833,31.075,31.075,0,0,1-4.5,16.206H166.04a31.075,31.075,0,0,1-4.5-16.206A31.5,31.5,0,0,1,163.462,29.292Z" transform="translate(-126.784)" fill="#31adf8"/>
    <path id="Path_431" data-name="Path 431" d="M235.025,125.529a5.287,5.287,0,1,0-5.287,5.287A5.293,5.293,0,0,0,235.025,125.529Zm-8.06,0a2.773,2.773,0,1,1,2.773,2.773A2.776,2.776,0,0,1,226.966,125.529Z" transform="translate(-186.84 -86.747)" fill="#31adf8"/>
  </g>
</svg>
