<?xml version="1.0" encoding="utf-8"?>
<!-- Generator: Adobe Illustrator 24.2.3, SVG Export Plug-In . SVG Version: 6.00 Build 0)  -->
<svg version="1.1" id="Logo" xmlns="http://www.w3.org/2000/svg" xmlns:xlink="http://www.w3.org/1999/xlink" x="0px" y="0px"
	 viewBox="0 0 107 124" style="enable-background:new 0 0 107 124;" xml:space="preserve">
<style type="text/css">
	.st0{fill:#009EDA;}
	.st1{font-family:'MuseoModerno-Bold';}
	.st2{font-size:47px;}
	.st3{enable-background:new    ;}
	.st4{fill:#FFFFFF;}
	.st5{fill:#9FDAF2;}
	.st6{fill:#0B8CBE;}
</style>
<text transform="matrix(1 0 0 1 1 64)" class="st0 st1 st2">mph</text>
<g class="st3">
	<path class="st4" d="M6.2,97H4.7V85.5h1.6V97z"/>
	<path class="st4" d="M10.4,85.6c0.1,0,0.1,0.1,0.2,0.2l6.6,8.6c0-0.1,0-0.3,0-0.4s0-0.3,0-0.4v-8.1h1.4V97h-0.8
		c-0.1,0-0.2,0-0.3-0.1c-0.1,0-0.2-0.1-0.2-0.2l-6.6-8.6c0,0.1,0,0.3,0,0.4c0,0.1,0,0.2,0,0.4V97H9.3V85.5h0.8
		C10.2,85.5,10.3,85.6,10.4,85.6z"/>
	<path class="st4" d="M29.2,85.5v1.3h-3.7V97H24V86.8h-3.7v-1.3H29.2z"/>
	<path class="st4" d="M37.9,85.5v1.3h-5.5v3.8h4.5v1.2h-4.5v3.9h5.5V97h-7.1V85.5H37.9z"/>
	<path class="st4" d="M41.8,92.2V97h-1.5V85.5h3.2c0.7,0,1.4,0.1,1.9,0.2c0.5,0.1,1,0.4,1.3,0.6c0.3,0.3,0.6,0.6,0.8,1
		c0.2,0.4,0.2,0.8,0.2,1.3c0,0.4-0.1,0.8-0.2,1.1c-0.1,0.4-0.3,0.7-0.6,0.9s-0.5,0.5-0.9,0.7s-0.7,0.3-1.2,0.4
		c0.2,0.1,0.4,0.3,0.5,0.5l3.3,4.6h-1.4c-0.3,0-0.5-0.1-0.6-0.3l-3-4.1c-0.1-0.1-0.2-0.2-0.3-0.3c-0.1-0.1-0.3-0.1-0.5-0.1H41.8z
		 M41.8,91.1h1.6c0.5,0,0.9-0.1,1.2-0.2c0.3-0.1,0.6-0.3,0.9-0.5c0.2-0.2,0.4-0.4,0.5-0.7c0.1-0.3,0.2-0.6,0.2-0.9
		c0-0.7-0.2-1.2-0.7-1.5c-0.5-0.3-1.1-0.5-2-0.5h-1.7V91.1z"/>
	<path class="st4" d="M59.9,97h-1.2c-0.1,0-0.3,0-0.3-0.1c-0.1-0.1-0.1-0.2-0.2-0.3l-1.1-2.8h-5.1l-1.1,2.8c0,0.1-0.1,0.2-0.2,0.3
		C50.6,97,50.5,97,50.3,97h-1.2l4.6-11.5h1.6L59.9,97z M52.4,92.7h4.3l-1.8-4.7c-0.1-0.3-0.2-0.6-0.3-1.1c-0.1,0.2-0.1,0.4-0.2,0.6
		c-0.1,0.2-0.1,0.3-0.2,0.5L52.4,92.7z"/>
	<path class="st4" d="M69.1,94.6c0.1,0,0.2,0,0.2,0.1l0.6,0.7c-0.5,0.5-1,1-1.7,1.3c-0.7,0.3-1.5,0.5-2.4,0.5
		c-0.8,0-1.6-0.1-2.2-0.4s-1.2-0.7-1.7-1.2s-0.8-1.1-1.1-1.9c-0.3-0.7-0.4-1.5-0.4-2.4c0-0.9,0.1-1.7,0.4-2.4
		c0.3-0.7,0.7-1.3,1.2-1.9c0.5-0.5,1.1-0.9,1.8-1.2c0.7-0.3,1.5-0.4,2.3-0.4c0.8,0,1.6,0.1,2.2,0.4c0.6,0.3,1.2,0.6,1.6,1.1
		l-0.5,0.7c0,0.1-0.1,0.1-0.1,0.1c0,0-0.1,0.1-0.2,0.1c-0.1,0-0.1,0-0.2-0.1c-0.1,0-0.2-0.1-0.3-0.2c-0.1-0.1-0.2-0.2-0.4-0.2
		c-0.1-0.1-0.3-0.2-0.5-0.2c-0.2-0.1-0.4-0.1-0.7-0.2s-0.6-0.1-0.9-0.1c-0.6,0-1.2,0.1-1.7,0.3c-0.5,0.2-0.9,0.5-1.3,0.9
		c-0.4,0.4-0.7,0.9-0.9,1.4c-0.2,0.6-0.3,1.2-0.3,1.9c0,0.7,0.1,1.4,0.3,1.9c0.2,0.6,0.5,1,0.8,1.4c0.4,0.4,0.8,0.7,1.3,0.9
		c0.5,0.2,1,0.3,1.6,0.3c0.3,0,0.6,0,0.9-0.1s0.5-0.1,0.8-0.2s0.4-0.2,0.6-0.3c0.2-0.1,0.4-0.3,0.6-0.5C68.9,94.7,69,94.6,69.1,94.6
		z"/>
	<path class="st4" d="M79.8,85.5v1.3H76V97h-1.6V86.8h-3.7v-1.3H79.8z"/>
	<path class="st4" d="M83.2,97h-1.6V85.5h1.6V97z"/>
	<path class="st4" d="M85,85.5h1.2c0.1,0,0.3,0,0.3,0.1c0.1,0.1,0.1,0.2,0.2,0.3L90,94c0.1,0.2,0.1,0.4,0.2,0.6
		c0.1,0.2,0.1,0.4,0.2,0.7c0-0.2,0.1-0.5,0.2-0.7c0.1-0.2,0.1-0.4,0.2-0.6l3.2-8.1c0-0.1,0.1-0.2,0.2-0.3c0.1-0.1,0.2-0.1,0.3-0.1
		h1.2L91,97h-1.4L85,85.5z"/>
	<path class="st4" d="M104.2,85.5v1.3h-5.5v3.8h4.5v1.2h-4.5v3.9h5.5V97h-7.1V85.5H104.2z"/>
</g>
<g class="st3">
	<path class="st4" d="M17.3,112.8c0,1.1-0.2,2-0.5,2.9c-0.4,0.9-0.9,1.6-1.5,2.3c-0.6,0.6-1.4,1.1-2.3,1.5c-0.9,0.4-1.9,0.5-3,0.5
		H4.5v-14.5H10c1.1,0,2.1,0.2,3,0.5c0.9,0.4,1.7,0.9,2.3,1.5c0.6,0.6,1.1,1.4,1.5,2.3C17.1,110.7,17.3,111.7,17.3,112.8z
		 M14.5,112.8c0-0.8-0.1-1.5-0.3-2.1s-0.5-1.2-0.9-1.6c-0.4-0.4-0.9-0.8-1.4-1c-0.6-0.2-1.2-0.4-1.9-0.4H7.2v10.2H10
		c0.7,0,1.3-0.1,1.9-0.4c0.6-0.2,1-0.6,1.4-1c0.4-0.4,0.7-1,0.9-1.6S14.5,113.6,14.5,112.8z"/>
	<path class="st4" d="M28.5,105.5v2.1h-6.4v4h5.1v2.1h-5.1v4.1h6.4v2.2h-9.1v-14.5H28.5z"/>
	<path class="st4" d="M38.6,108.2c-0.1,0.1-0.2,0.2-0.3,0.3c-0.1,0.1-0.2,0.1-0.3,0.1s-0.3-0.1-0.4-0.2c-0.2-0.1-0.4-0.2-0.6-0.3
		c-0.2-0.1-0.5-0.2-0.8-0.3c-0.3-0.1-0.7-0.2-1.1-0.2c-0.4,0-0.7,0-1,0.1c-0.3,0.1-0.5,0.2-0.7,0.4s-0.3,0.4-0.4,0.6
		c-0.1,0.2-0.1,0.5-0.1,0.7c0,0.3,0.1,0.6,0.3,0.9s0.4,0.4,0.8,0.6s0.7,0.3,1.1,0.4c0.4,0.1,0.8,0.3,1.2,0.4s0.8,0.3,1.2,0.5
		c0.4,0.2,0.8,0.4,1.1,0.7s0.6,0.6,0.8,1.1c0.2,0.4,0.3,0.9,0.3,1.5c0,0.7-0.1,1.3-0.3,1.8c-0.2,0.6-0.5,1.1-1,1.5
		c-0.4,0.4-1,0.8-1.6,1c-0.6,0.2-1.3,0.4-2.1,0.4c-0.5,0-0.9,0-1.4-0.1c-0.4-0.1-0.9-0.2-1.3-0.4c-0.4-0.2-0.8-0.4-1.1-0.6
		s-0.7-0.5-1-0.8l0.8-1.3c0.1-0.1,0.2-0.2,0.3-0.2c0.1-0.1,0.2-0.1,0.3-0.1c0.2,0,0.3,0.1,0.5,0.2s0.4,0.3,0.7,0.5
		c0.3,0.2,0.6,0.3,0.9,0.5c0.4,0.1,0.8,0.2,1.3,0.2c0.8,0,1.4-0.2,1.8-0.5c0.4-0.4,0.6-0.9,0.6-1.6c0-0.4-0.1-0.7-0.3-0.9
		s-0.4-0.4-0.8-0.6c-0.3-0.2-0.7-0.3-1.1-0.4c-0.4-0.1-0.8-0.2-1.2-0.4c-0.4-0.1-0.8-0.3-1.2-0.5c-0.4-0.2-0.8-0.4-1.1-0.7
		c-0.3-0.3-0.6-0.7-0.8-1.1c-0.2-0.5-0.3-1-0.3-1.7c0-0.5,0.1-1,0.3-1.5s0.5-0.9,0.9-1.3s0.9-0.7,1.5-0.9c0.6-0.2,1.3-0.4,2-0.4
		c0.9,0,1.6,0.1,2.4,0.4c0.7,0.3,1.3,0.6,1.8,1.1L38.6,108.2z"/>
	<path class="st4" d="M44.6,120h-2.7v-14.5h2.7V120z"/>
	<path class="st4" d="M54.5,118c0.6,0,1.1-0.1,1.6-0.2c0.5-0.1,0.9-0.3,1.3-0.5v-2.6h-1.8c-0.2,0-0.3,0-0.4-0.1
		c-0.1-0.1-0.2-0.2-0.2-0.4v-1.5h4.8v5.8c-0.4,0.3-0.7,0.5-1.1,0.7c-0.4,0.2-0.8,0.4-1.3,0.5c-0.4,0.1-0.9,0.2-1.4,0.3
		c-0.5,0.1-1.1,0.1-1.7,0.1c-1.1,0-2-0.2-2.9-0.5c-0.9-0.4-1.7-0.9-2.3-1.5c-0.6-0.7-1.2-1.4-1.5-2.3c-0.4-0.9-0.5-1.9-0.5-3
		c0-1.1,0.2-2.1,0.5-3c0.4-0.9,0.9-1.7,1.5-2.3c0.7-0.7,1.4-1.2,2.4-1.5s2-0.5,3.1-0.5c1.2,0,2.2,0.2,3.1,0.5
		c0.9,0.3,1.6,0.8,2.2,1.4l-0.8,1.2c-0.2,0.2-0.4,0.4-0.6,0.4c-0.2,0-0.3-0.1-0.5-0.2c-0.2-0.1-0.4-0.3-0.7-0.4
		c-0.2-0.1-0.5-0.2-0.7-0.3c-0.3-0.1-0.6-0.2-0.9-0.2c-0.3-0.1-0.7-0.1-1.2-0.1c-0.7,0-1.4,0.1-1.9,0.4c-0.6,0.2-1.1,0.6-1.5,1
		c-0.4,0.4-0.7,1-0.9,1.6c-0.2,0.6-0.3,1.3-0.3,2.1c0,0.8,0.1,1.6,0.4,2.2c0.2,0.6,0.6,1.2,1,1.6c0.4,0.4,0.9,0.8,1.5,1
		C53.2,117.9,53.8,118,54.5,118z"/>
	<path class="st4" d="M64,105.6c0.1,0,0.2,0,0.2,0.1c0.1,0,0.1,0.1,0.2,0.1s0.1,0.1,0.2,0.2l7.6,9.7c0-0.2,0-0.5-0.1-0.7
		c0-0.2,0-0.4,0-0.6v-8.8h2.4V120h-1.4c-0.2,0-0.4,0-0.5-0.1c-0.1-0.1-0.3-0.2-0.4-0.4l-7.6-9.6c0,0.2,0,0.4,0,0.6
		c0,0.2,0,0.4,0,0.6v8.9h-2.4v-14.5h1.4C63.9,105.5,64,105.5,64,105.6z"/>
	<path class="st4" d="M86.6,105.5v2.1h-6.4v4h5v2.1h-5v4.1h6.4v2.2h-9.1v-14.5H86.6z"/>
	<path class="st4" d="M91.7,114.3v5.7H89v-14.5h4.4c1,0,1.8,0.1,2.5,0.3c0.7,0.2,1.3,0.5,1.7,0.9c0.5,0.4,0.8,0.8,1,1.3
		c0.2,0.5,0.3,1.1,0.3,1.7c0,0.5-0.1,0.9-0.2,1.4c-0.1,0.4-0.3,0.8-0.6,1.2c-0.3,0.4-0.6,0.7-1,0.9s-0.8,0.5-1.4,0.6
		c0.3,0.2,0.6,0.5,0.9,0.8l3.6,5.3h-2.4c-0.2,0-0.4,0-0.6-0.1c-0.2-0.1-0.3-0.2-0.4-0.4l-3-4.6c-0.1-0.2-0.2-0.3-0.4-0.4
		c-0.1-0.1-0.3-0.1-0.6-0.1H91.7z M91.7,112.4h1.7c0.5,0,0.9-0.1,1.3-0.2c0.4-0.1,0.7-0.3,0.9-0.5s0.4-0.5,0.5-0.8
		c0.1-0.3,0.2-0.6,0.2-1c0-0.7-0.2-1.3-0.7-1.7s-1.2-0.6-2.2-0.6h-1.7V112.4z"/>
</g>
<text transform="matrix(1 0 0 1 1 64)" class="st0 st1 st2">mph</text>
<path id="Path_1" class="st5" d="M2.3,0H103v72H2.3V0z"/>
<g class="st3">
	<path class="st6" d="M23.8,72.5c-1.7,0-3.3-0.4-4.8-1.2c-1.4-0.8-2.6-1.8-3.4-3.2c-0.8-1.4-1.3-3-1.3-4.9V50.1
		c0-0.5-0.1-0.9-0.3-1.2c-0.2-0.4-0.5-0.7-0.9-0.9c-0.4-0.2-0.8-0.3-1.2-0.3c-0.5,0-0.9,0.1-1.2,0.3c-0.4,0.2-0.7,0.5-0.9,0.9
		c-0.2,0.4-0.3,0.8-0.3,1.2V72H2.3V50.6c0-1.8,0.4-3.4,1.2-4.8s1.9-2.5,3.4-3.3c1.4-0.8,3.1-1.2,4.9-1.2c1.8,0,3.5,0.4,4.9,1.2
		c1.4,0.8,2.6,1.9,3.4,3.3c0.8,1.4,1.2,3,1.2,4.8v13.1c0,0.5,0.1,0.9,0.3,1.3c0.2,0.4,0.5,0.7,0.9,0.9c0.4,0.2,0.8,0.3,1.2,0.3
		c0.5,0,0.9-0.1,1.3-0.3c0.4-0.2,0.7-0.5,0.9-0.9c0.2-0.4,0.3-0.8,0.3-1.3V50.6c0-1.8,0.4-3.4,1.2-4.8c0.8-1.4,2-2.5,3.4-3.3
		c1.4-0.8,3.1-1.2,4.8-1.2c1.8,0,3.5,0.4,4.9,1.2c1.4,0.8,2.5,1.9,3.4,3.3c0.8,1.4,1.2,3,1.2,4.8V72h-7.1V50.1
		c0-0.5-0.1-0.9-0.3-1.2c-0.2-0.4-0.5-0.7-0.9-0.9c-0.4-0.2-0.8-0.3-1.2-0.3c-0.4,0-0.8,0.1-1.2,0.3c-0.4,0.2-0.7,0.5-0.9,0.9
		c-0.2,0.4-0.3,0.8-0.3,1.2v13.2c0,1.9-0.4,3.5-1.3,4.9c-0.9,1.4-2,2.5-3.4,3.2C27.2,72.1,25.6,72.5,23.8,72.5z"/>
	<path class="st6" d="M50.3,72V41.9h12.9c2,0,3.9,0.5,5.5,1.4c1.7,0.9,3,2.2,4,3.8c1,1.6,1.5,3.5,1.5,5.6s-0.5,4-1.5,5.7
		c-1,1.6-2.3,2.9-4,3.8c-1.7,0.9-3.5,1.4-5.5,1.4h-5.7V72H50.3z M57.5,57.5h4.9c0.8,0,1.6-0.2,2.3-0.6c0.7-0.4,1.3-0.9,1.7-1.6
		s0.6-1.6,0.6-2.6s-0.2-1.9-0.6-2.6s-1-1.3-1.7-1.7c-0.7-0.4-1.5-0.6-2.3-0.6h-4.9V57.5z"/>
	<path class="st6" d="M78,72V41.9h7.2v11.8h11.7V41.9h7.2V72h-7.2V59.7H85.2V72H78z"/>
</g>
</svg>
