<svg id="logo" xmlns="http://www.w3.org/2000/svg" width="57.925" height="71.292" viewBox="0 0 57.925 71.292">
  <path id="Path_443" data-name="Path 443" d="M-42.3-3.466h-.895v-6.6h.895Zm2.232-6.6a.4.4,0,0,1,.178.03.459.459,0,0,1,.131.122l3.828,4.977q-.014-.12-.018-.233t0-.219v-4.677h.784v6.6h-.452A.385.385,0,0,1-35.8-3.5a.448.448,0,0,1-.141-.124L-39.759-8.6q.009.115.014.226t0,.2v4.705h-.784v-6.6Zm11.013,0v.751h-2.135v5.853h-.895V-9.318h-2.144v-.751Zm5.013,0v.728h-3.173v2.194h2.569v.7h-2.569v2.253h3.173v.728H-28.11v-6.6Zm2.269,3.848v2.756h-.89v-6.6h1.868a4.084,4.084,0,0,1,1.084.127,2.069,2.069,0,0,1,.754.366,1.467,1.467,0,0,1,.44.578,1.932,1.932,0,0,1,.143.758,1.9,1.9,0,0,1-.111.654,1.728,1.728,0,0,1-.321.546,1.917,1.917,0,0,1-.512.412A2.535,2.535,0,0,1-20-6.369a.945.945,0,0,1,.3.281l1.928,2.622h-.793a.391.391,0,0,1-.36-.189l-1.716-2.359a.5.5,0,0,0-.171-.159.616.616,0,0,0-.277-.048Zm0-.65h.936a2.281,2.281,0,0,0,.689-.094,1.4,1.4,0,0,0,.5-.267,1.109,1.109,0,0,0,.3-.412,1.346,1.346,0,0,0,.1-.53,1.052,1.052,0,0,0-.39-.889,1.884,1.884,0,0,0-1.16-.3h-.978Zm10.395,3.406h-.692a.3.3,0,0,1-.194-.06.368.368,0,0,1-.111-.152l-.618-1.594h-2.965l-.618,1.594a.36.36,0,0,1-.111.147.3.3,0,0,1-.194.065h-.692l2.642-6.6h.908ZM-15.7-5.917h2.467L-14.275-8.6a5.019,5.019,0,0,1-.2-.622q-.051.189-.1.348t-.095.279ZM-6.076-4.83a.185.185,0,0,1,.134.06l.35.382a2.827,2.827,0,0,1-.985.733,3.359,3.359,0,0,1-1.4.263,3.286,3.286,0,0,1-1.3-.247,2.84,2.84,0,0,1-.991-.691A3.124,3.124,0,0,1-10.895-5.4a3.983,3.983,0,0,1-.226-1.369,3.743,3.743,0,0,1,.242-1.369A3.127,3.127,0,0,1-10.2-9.2,3.044,3.044,0,0,1-9.149-9.9,3.574,3.574,0,0,1-7.8-10.143a3.183,3.183,0,0,1,1.257.226,3.176,3.176,0,0,1,.938.613l-.291.41a.317.317,0,0,1-.074.076.2.2,0,0,1-.12.03.234.234,0,0,1-.127-.044q-.067-.044-.159-.108t-.217-.138a1.9,1.9,0,0,0-.3-.138,2.44,2.44,0,0,0-.4-.108,2.762,2.762,0,0,0-.521-.044,2.518,2.518,0,0,0-.971.182,2.174,2.174,0,0,0-.759.518,2.358,2.358,0,0,0-.5.82,3.126,3.126,0,0,0-.178,1.083,3.184,3.184,0,0,0,.178,1.1,2.431,2.431,0,0,0,.484.818,2.042,2.042,0,0,0,.726.509,2.323,2.323,0,0,0,.9.175,3.673,3.673,0,0,0,.53-.035A2.179,2.179,0,0,0-6.95-4.3a1.845,1.845,0,0,0,.374-.187,2.921,2.921,0,0,0,.348-.27A.234.234,0,0,1-6.076-4.83Zm6.161-5.24v.751H-2.05v5.853h-.895V-9.318H-5.089v-.751Zm2,6.6H1.192v-6.6h.895Zm1.005-6.6h.715a.3.3,0,0,1,.194.06.368.368,0,0,1,.111.152L5.979-5.2a3.267,3.267,0,0,1,.118.341q.053.184.1.382.042-.2.09-.382A2.687,2.687,0,0,1,6.4-5.2L8.262-9.857A.386.386,0,0,1,8.372-10a.288.288,0,0,1,.194-.067h.719l-2.693,6.6H5.785Zm11.109,0v.728H11.029v2.194H13.6v.7H11.029v2.253H14.2v.728H10.129v-6.6ZM-35.174,6.076a4.63,4.63,0,0,1-.314,1.73,3.974,3.974,0,0,1-.883,1.357,3.953,3.953,0,0,1-1.37.883,4.816,4.816,0,0,1-1.773.314h-3.273V1.792h3.273a4.776,4.776,0,0,1,1.773.317,4.01,4.01,0,0,1,1.37.883,3.942,3.942,0,0,1,.883,1.354A4.63,4.63,0,0,1-35.174,6.076Zm-1.631,0a3.93,3.93,0,0,0-.19-1.265,2.68,2.68,0,0,0-.54-.948,2.326,2.326,0,0,0-.851-.6,2.929,2.929,0,0,0-1.13-.207h-1.666V9.091h1.666a2.929,2.929,0,0,0,1.13-.207,2.326,2.326,0,0,0,.851-.6,2.68,2.68,0,0,0,.54-.948A3.929,3.929,0,0,0-36.8,6.076Zm8.289-4.284V3.06h-3.8V5.436h2.994V6.662h-2.994V9.085h3.8v1.274h-5.407V1.792Zm5.977,1.558a.44.44,0,0,1-.151.184.38.38,0,0,1-.2.053.52.52,0,0,1-.267-.092q-.148-.092-.35-.2a2.858,2.858,0,0,0-.471-.2,1.982,1.982,0,0,0-.637-.092,1.875,1.875,0,0,0-.578.08,1.224,1.224,0,0,0-.415.222.888.888,0,0,0-.252.341,1.118,1.118,0,0,0-.083.435.757.757,0,0,0,.169.5,1.411,1.411,0,0,0,.448.344,4.156,4.156,0,0,0,.634.255q.356.113.726.24a7,7,0,0,1,.726.3,2.517,2.517,0,0,1,.634.427,1.933,1.933,0,0,1,.448.631,2.19,2.19,0,0,1,.169.907,2.952,2.952,0,0,1-.2,1.087,2.508,2.508,0,0,1-.581.883,2.737,2.737,0,0,1-.934.592,3.44,3.44,0,0,1-1.263.216,4.075,4.075,0,0,1-.806-.08,4.247,4.247,0,0,1-.762-.228,3.979,3.979,0,0,1-.682-.355,3.355,3.355,0,0,1-.566-.462l.462-.764a.59.59,0,0,1,.157-.139.384.384,0,0,1,.2-.056.566.566,0,0,1,.32.121q.172.121.406.27a3.117,3.117,0,0,0,.551.27,2.133,2.133,0,0,0,.762.121,1.565,1.565,0,0,0,1.055-.323,1.159,1.159,0,0,0,.374-.927.861.861,0,0,0-.169-.551,1.364,1.364,0,0,0-.448-.358,3.344,3.344,0,0,0-.634-.246q-.356-.1-.723-.219a6.24,6.24,0,0,1-.723-.284,2.343,2.343,0,0,1-.634-.433,1.968,1.968,0,0,1-.448-.667,2.539,2.539,0,0,1-.169-.987,2.334,2.334,0,0,1,.187-.912,2.336,2.336,0,0,1,.545-.788,2.693,2.693,0,0,1,.88-.551A3.207,3.207,0,0,1-24.638,1.7a4,4,0,0,1,1.4.237,3.159,3.159,0,0,1,1.091.664Zm3.563,7.009h-1.6V1.792h1.6Zm5.864-1.173a3.993,3.993,0,0,0,.94-.1,3.96,3.96,0,0,0,.762-.27V7.261h-1.073a.335.335,0,0,1-.243-.086.281.281,0,0,1-.089-.21v-.9h2.852V9.53a4.711,4.711,0,0,1-.679.412,4.337,4.337,0,0,1-.753.287,5.771,5.771,0,0,1-.857.169,8.063,8.063,0,0,1-.984.056,4.474,4.474,0,0,1-1.725-.326,4.1,4.1,0,0,1-1.364-.907,4.127,4.127,0,0,1-.9-1.386,4.685,4.685,0,0,1-.323-1.76A4.836,4.836,0,0,1-17.233,4.3a4,4,0,0,1,.892-1.386,3.984,3.984,0,0,1,1.4-.9,5.077,5.077,0,0,1,1.85-.32,4.826,4.826,0,0,1,1.817.311,4.192,4.192,0,0,1,1.3.809l-.462.723a.411.411,0,0,1-.362.219.538.538,0,0,1-.291-.095q-.19-.113-.388-.225a2.628,2.628,0,0,0-.439-.2,3.579,3.579,0,0,0-.54-.136,3.976,3.976,0,0,0-.691-.053,2.961,2.961,0,0,0-1.147.213,2.427,2.427,0,0,0-.875.61,2.75,2.75,0,0,0-.557.954,3.736,3.736,0,0,0-.2,1.244,3.886,3.886,0,0,0,.208,1.318,2.765,2.765,0,0,0,.581.975,2.5,2.5,0,0,0,.889.607A2.956,2.956,0,0,0-13.112,9.186Zm5.473-7.394a1.476,1.476,0,0,1,.178.009.417.417,0,0,1,.127.036.428.428,0,0,1,.11.077,1.235,1.235,0,0,1,.119.133l4.5,5.729q-.024-.207-.033-.406T-2.647,7V1.792h1.405v8.567h-.824A.731.731,0,0,1-2.38,10.3a.7.7,0,0,1-.243-.213L-7.106,4.381q.018.19.027.376t.009.341v5.261H-8.475V1.792Zm13.536,0V3.06H2.1V5.436H5.091V6.662H2.1V9.085H5.9v1.274H.49V1.792Zm3.03,5.22v3.348H7.332V1.792H9.947a5.465,5.465,0,0,1,1.5.181,2.865,2.865,0,0,1,1.026.507,1.956,1.956,0,0,1,.587.779,2.6,2.6,0,0,1,.187,1,2.585,2.585,0,0,1-.127.818,2.366,2.366,0,0,1-.368.7,2.477,2.477,0,0,1-.593.551,3.109,3.109,0,0,1-.8.379,1.58,1.58,0,0,1,.522.492l2.146,3.164H12.591a.7.7,0,0,1-.353-.083.721.721,0,0,1-.246-.237L10.19,7.3a.632.632,0,0,0-.222-.219.779.779,0,0,0-.359-.065Zm0-1.144h1a2.47,2.47,0,0,0,.786-.113,1.519,1.519,0,0,0,.551-.311,1.249,1.249,0,0,0,.323-.471,1.628,1.628,0,0,0,.107-.6,1.216,1.216,0,0,0-.43-1,2.057,2.057,0,0,0-1.313-.35H8.927Z" transform="translate(43.724 60.837)" fill="#0c9cd5"/>
  <path id="Path_1" data-name="Path 1" d="M0,0H57.318V40.519H0Z" fill="#c8e3f2"/>
  <path id="Path_442" data-name="Path 442" d="M2.378-10.226V-18.4a5.957,5.957,0,0,1,.8-3.064,5.6,5.6,0,0,1,2.282-2.146A7.5,7.5,0,0,1,9-24.4a7.357,7.357,0,0,1,1.891.229,7.05,7.05,0,0,1,1.58.621,4.967,4.967,0,0,1,1.229.931h.054a5.488,5.488,0,0,1,1.256-.931,7,7,0,0,1,1.594-.621,7.514,7.514,0,0,1,1.9-.229,7.5,7.5,0,0,1,3.538.783,5.689,5.689,0,0,1,2.3,2.146,5.88,5.88,0,0,1,.81,3.064v8.178H20.934V-18.27A2.312,2.312,0,0,0,20.6-19.5a2.716,2.716,0,0,0-.9-.9,2.414,2.414,0,0,0-1.3-.351,2.483,2.483,0,0,0-1.31.351,2.561,2.561,0,0,0-.9.9,2.385,2.385,0,0,0-.324,1.228v8.043H11.67V-18.27a2.312,2.312,0,0,0-.338-1.228,2.677,2.677,0,0,0-.918-.9,2.483,2.483,0,0,0-1.31-.351,2.483,2.483,0,0,0-1.31.351,2.561,2.561,0,0,0-.9.9,2.385,2.385,0,0,0-.324,1.228v8.043ZM35.574-24.4a8.024,8.024,0,0,0-3.917.918,6.375,6.375,0,0,0-2.593,2.618,8.224,8.224,0,0,0-.918,3.968V-4.369h4.187v-7.369h.081a4.061,4.061,0,0,0,1.013.985,4.655,4.655,0,0,0,1.351.634,5.635,5.635,0,0,0,1.58.216,6.593,6.593,0,0,0,3.457-.891,6.327,6.327,0,0,0,2.336-2.456A7.572,7.572,0,0,0,43-16.92a8.511,8.511,0,0,0-.513-3A6.969,6.969,0,0,0,41.017-22.3a6.392,6.392,0,0,0-2.323-1.552A8.429,8.429,0,0,0,35.574-24.4Zm0,3.617a2.929,2.929,0,0,1,1.675.472,3.157,3.157,0,0,1,1.094,1.3,4.25,4.25,0,0,1,.392,1.849,4.163,4.163,0,0,1-.392,1.835,3.175,3.175,0,0,1-1.094,1.282,2.929,2.929,0,0,1-1.675.472,2.994,2.994,0,0,1-1.688-.472,3.044,3.044,0,0,1-1.094-1.282,4.288,4.288,0,0,1-.378-1.835,4.379,4.379,0,0,1,.378-1.849,3.028,3.028,0,0,1,1.094-1.3A2.994,2.994,0,0,1,35.574-20.78Zm9.913,10.554v-19.7h4.187v6.775a5.322,5.322,0,0,1,1.783-.945,6.629,6.629,0,0,1,1.945-.3,5.975,5.975,0,0,1,3.2.81,5.108,5.108,0,0,1,1.972,2.213,7.381,7.381,0,0,1,.662,3.185v7.962H55.049v-7.8a2.647,2.647,0,0,0-.365-1.39,2.792,2.792,0,0,0-.972-.972,2.551,2.551,0,0,0-1.337-.364,2.7,2.7,0,0,0-1.351.351,2.685,2.685,0,0,0-.986.945,2.527,2.527,0,0,0-.365,1.35v7.882Z" transform="translate(-2.129 50.642)" fill="#0c9cd5"/>
</svg>
