<svg id="Logo" xmlns="http://www.w3.org/2000/svg" viewBox="0 0 101.9 120.65"><defs><style>.cls-1{isolation:isolate;}.cls-2{fill:#fff;}.cls-3{fill:#9fdaf2;}</style></defs><g class="cls-1"><path class="cls-2" d="M3.9,97H2.4V85.5H4V97Z" transform="translate(0 0.45)"/><path class="cls-2" d="M8.1,85.6c.1,0,.1.1.2.2l6.6,8.6V85.5h1.4V97h-.8a.37.37,0,0,1-.3-.1.22.22,0,0,1-.2-.2L8.4,88.1V97H7V85.5h.8C7.9,85.5,8,85.6,8.1,85.6Z" transform="translate(0 0.45)"/><path class="cls-2" d="M26.9,85.5v1.3H23.2V97H21.7V86.8H18V85.5Z" transform="translate(0 0.45)"/><path class="cls-2" d="M35.6,85.5v1.3H30.1v3.8h4.5v1.2H30.1v3.9h5.5V97H28.5V85.5Z" transform="translate(0 0.45)"/><path class="cls-2" d="M39.5,92.2V97H38V85.5h3.2a10.07,10.07,0,0,1,1.9.2,3,3,0,0,1,2.1,1.6,2.74,2.74,0,0,1,.2,1.3,3.59,3.59,0,0,1-.2,1.1,1.46,1.46,0,0,1-.6.9,7.05,7.05,0,0,1-.9.7,4.23,4.23,0,0,1-1.2.4,1.21,1.21,0,0,1,.5.5l3.3,4.6H44.9a.6.6,0,0,1-.6-.3l-3-4.1-.3-.3a.75.75,0,0,0-.5-.1h-1Zm0-1.1h1.6a3.73,3.73,0,0,0,1.2-.2,4.05,4.05,0,0,0,.9-.5,1.79,1.79,0,0,0,.5-.7,2.92,2.92,0,0,0,.2-.9,1.58,1.58,0,0,0-.7-1.5,3.68,3.68,0,0,0-2-.5H39.5Z" transform="translate(0 0.45)"/><path class="cls-2" d="M57.6,97H56.4c-.1,0-.3,0-.3-.1s-.1-.2-.2-.3l-1.1-2.8H49.7l-1.1,2.8c0,.1-.1.2-.2.3s-.2.1-.4.1H46.8l4.6-11.5H53Zm-7.5-4.3h4.3L52.6,88a8.11,8.11,0,0,1-.3-1.1c-.1.2-.1.4-.2.6s-.1.3-.2.5Z" transform="translate(0 0.45)"/><path class="cls-2" d="M66.8,94.6c.1,0,.2,0,.2.1l.6.7a5.5,5.5,0,0,1-1.7,1.3,6,6,0,0,1-2.4.5,5.09,5.09,0,0,1-2.2-.4,6.57,6.57,0,0,1-1.7-1.2,5,5,0,0,1-1.1-1.9,7.4,7.4,0,0,1,0-4.8A7.61,7.61,0,0,1,59.7,87a5.67,5.67,0,0,1,1.8-1.2,5.87,5.87,0,0,1,2.3-.4,5.09,5.09,0,0,1,2.2.4,4.57,4.57,0,0,1,1.6,1.1l-.5.7a.1.1,0,0,1-.1.1.35.35,0,0,1-.2.1c-.1,0-.1,0-.2-.1s-.2-.1-.3-.2a.52.52,0,0,0-.4-.2.76.76,0,0,0-.5-.2,6.37,6.37,0,0,0-.7-.2,2.77,2.77,0,0,0-.9-.1,4.67,4.67,0,0,0-1.7.3,3.81,3.81,0,0,0-1.3.9,4.19,4.19,0,0,0-.9,1.4,5.82,5.82,0,0,0-.3,1.9,5.41,5.41,0,0,0,.3,1.9,4.68,4.68,0,0,0,.8,1.4,3.81,3.81,0,0,0,1.3.9,4.15,4.15,0,0,0,1.6.3,2.77,2.77,0,0,0,.9-.1c.3-.1.5-.1.8-.2a3.33,3.33,0,0,0,.6-.3,2.65,2.65,0,0,0,.6-.5C66.6,94.7,66.7,94.6,66.8,94.6Z" transform="translate(0 0.45)"/><path class="cls-2" d="M77.5,85.5v1.3H73.7V97H72.1V86.8H68.4V85.5Z" transform="translate(0 0.45)"/><path class="cls-2" d="M80.9,97H79.3V85.5h1.6Z" transform="translate(0 0.45)"/><path class="cls-2" d="M82.7,85.5h1.2c.1,0,.3,0,.3.1s.1.2.2.3L87.7,94c.1.2.1.4.2.6a6.37,6.37,0,0,1,.2.7,1.85,1.85,0,0,1,.2-.7c.1-.2.1-.4.2-.6l3.2-8.1c0-.1.1-.2.2-.3a.37.37,0,0,1,.3-.1h1.2L88.7,97H87.3Z" transform="translate(0 0.45)"/><path class="cls-2" d="M101.9,85.5v1.3H96.4v3.8h4.5v1.2H96.4v3.9h5.5V97H94.8V85.5Z" transform="translate(0 0.45)"/></g><g class="cls-1"><path class="cls-2" d="M15,112.8a8.81,8.81,0,0,1-.5,2.9A9.13,9.13,0,0,1,13,118a7.63,7.63,0,0,1-2.3,1.5,7.29,7.29,0,0,1-3,.5H2.2V105.5H7.7a9.43,9.43,0,0,1,3,.5,7.63,7.63,0,0,1,2.3,1.5,7.63,7.63,0,0,1,1.5,2.3A9.43,9.43,0,0,1,15,112.8Zm-2.8,0a6.65,6.65,0,0,0-.3-2.1,4.17,4.17,0,0,0-.9-1.6,4.51,4.51,0,0,0-1.4-1,5.85,5.85,0,0,0-1.9-.4H4.9v10.2H7.7a4.06,4.06,0,0,0,1.9-.4,3.59,3.59,0,0,0,1.4-1,4.17,4.17,0,0,0,.9-1.6A6.65,6.65,0,0,0,12.2,112.8Z" transform="translate(0 0.45)"/><path class="cls-2" d="M26.2,105.5v2.1H19.8v4h5.1v2.1H19.8v4.1h6.4V120H17.1V105.5Z" transform="translate(0 0.45)"/><path class="cls-2" d="M36.3,108.2l-.3.3a.37.37,0,0,1-.3.1.76.76,0,0,1-.4-.2l-.6-.3a6.89,6.89,0,0,0-.8-.3,3.59,3.59,0,0,0-1.1-.2,3.08,3.08,0,0,0-1,.1,1.61,1.61,0,0,0-.7.4,2.09,2.09,0,0,0-.4.6,1.7,1.7,0,0,0-.1.7,1.61,1.61,0,0,0,.3.9,1.7,1.7,0,0,0,.8.6,4.87,4.87,0,0,0,1.1.4c.4.1.8.3,1.2.4a6.12,6.12,0,0,1,1.2.5,4.13,4.13,0,0,1,1.1.7,3.13,3.13,0,0,1,.8,1.1,3.34,3.34,0,0,1,.3,1.5,4.84,4.84,0,0,1-.3,1.8,3.07,3.07,0,0,1-1,1.5,4.35,4.35,0,0,1-1.6,1,6.84,6.84,0,0,1-3.5.3,6.47,6.47,0,0,1-1.3-.4,10.91,10.91,0,0,1-1.1-.6,7,7,0,0,1-1-.8l.8-1.3c.1-.1.2-.2.3-.2a.37.37,0,0,1,.3-.1c.2,0,.3.1.5.2s.4.3.7.5.6.3.9.5a5.07,5.07,0,0,0,1.3.2,3,3,0,0,0,1.8-.5,2.11,2.11,0,0,0,.6-1.6,1.22,1.22,0,0,0-.3-.9,2.76,2.76,0,0,0-.8-.6,3.58,3.58,0,0,0-1.1-.4,5.64,5.64,0,0,1-1.2-.4,6.12,6.12,0,0,1-1.2-.5,4.13,4.13,0,0,1-1.1-.7,4.44,4.44,0,0,1-.8-1.1,4.31,4.31,0,0,1-.3-1.7,4,4,0,0,1,.3-1.5,3.81,3.81,0,0,1,.9-1.3,3.77,3.77,0,0,1,1.5-.9,6.47,6.47,0,0,1,2-.4,6.37,6.37,0,0,1,2.4.4,5.44,5.44,0,0,1,1.8,1.1Z" transform="translate(0 0.45)"/><path class="cls-2" d="M42.3,120H39.6V105.5h2.7Z" transform="translate(0 0.45)"/><path class="cls-2" d="M52.2,118a7.77,7.77,0,0,0,1.6-.2,5,5,0,0,0,1.3-.5v-2.6H53.3c-.2,0-.3,0-.4-.1a.52.52,0,0,1-.2-.4v-1.5h4.8v5.8a6.73,6.73,0,0,1-1.1.7,5,5,0,0,1-1.3.5c-.4.1-.9.2-1.4.3a9.15,9.15,0,0,1-1.7.1,8.81,8.81,0,0,1-2.9-.5,7.63,7.63,0,0,1-2.3-1.5,7,7,0,0,1-1.5-2.3,7.29,7.29,0,0,1-.5-3,9.43,9.43,0,0,1,.5-3,7.63,7.63,0,0,1,1.5-2.3,5.45,5.45,0,0,1,2.4-1.5,10.59,10.59,0,0,1,3.1-.5,9.59,9.59,0,0,1,3.1.5,5.55,5.55,0,0,1,2.2,1.4l-.8,1.2c-.2.2-.4.4-.6.4s-.3-.1-.5-.2a4.35,4.35,0,0,0-.7-.4c-.2-.1-.5-.2-.7-.3a2.92,2.92,0,0,0-.9-.2,4.12,4.12,0,0,0-1.2-.1,3.81,3.81,0,0,0-1.9.4,4,4,0,0,0-1.5,1,4.17,4.17,0,0,0-.9,1.6,6.65,6.65,0,0,0-.3,2.1,5.09,5.09,0,0,0,.4,2.2,4.35,4.35,0,0,0,1,1.6,4.3,4.3,0,0,0,3.2,1.3Z" transform="translate(0 0.45)"/><path class="cls-2" d="M61.7,105.6c.1,0,.2,0,.2.1s.1.1.2.1.1.1.2.2l7.6,9.7a1.7,1.7,0,0,0-.1-.7v-9.4h2.4V120H70.8a.75.75,0,0,1-.5-.1c-.1-.1-.3-.2-.4-.4l-7.6-9.6V120H59.9V105.5h1.4C61.6,105.5,61.7,105.5,61.7,105.6Z" transform="translate(0 0.45)"/><path class="cls-2" d="M84.3,105.5v2.1H77.9v4h5v2.1h-5v4.1h6.4V120H75.2V105.5Z" transform="translate(0 0.45)"/><path class="cls-2" d="M89.4,114.3V120H86.7V105.5h4.4a9,9,0,0,1,2.5.3,3.93,3.93,0,0,1,1.7.9,3.05,3.05,0,0,1,1,1.3,4.67,4.67,0,0,1,.3,1.7,6.75,6.75,0,0,1-.2,1.4,3.38,3.38,0,0,1-.6,1.2,2.84,2.84,0,0,1-1,.9,4.54,4.54,0,0,1-1.4.6,6.47,6.47,0,0,1,.9.8l3.6,5.3H95.5a1.27,1.27,0,0,1-.6-.1.78.78,0,0,1-.4-.4l-3-4.6a.78.78,0,0,0-.4-.4c-.1-.1-.3-.1-.6-.1Zm0-1.9h1.7a5.07,5.07,0,0,0,1.3-.2,1.93,1.93,0,0,0,.9-.5,2.18,2.18,0,0,0,.5-.8,3,3,0,0,0,.2-1,2.06,2.06,0,0,0-.7-1.7,3.4,3.4,0,0,0-2.2-.6H89.4Z" transform="translate(0 0.45)"/></g><path class="cls-3" d="M0-.45V50.6a9.5,9.5,0,0,1,1.2-4.8,8.32,8.32,0,0,1,3.4-3.3,9.88,9.88,0,0,1,4.9-1.2,9.88,9.88,0,0,1,4.9,1.2,9,9,0,0,1,3.4,3.3A9.5,9.5,0,0,1,19,50.6V63.7a2.77,2.77,0,0,0,.3,1.3,2,2,0,0,0,.9.9,2.66,2.66,0,0,0,1.2.3,2.77,2.77,0,0,0,1.3-.3,2,2,0,0,0,.9-.9,2.77,2.77,0,0,0,.3-1.3V50.6a9.5,9.5,0,0,1,1.2-4.8,9,9,0,0,1,3.4-3.3,9.77,9.77,0,0,1,4.8-1.2,9.88,9.88,0,0,1,4.9,1.2,9.75,9.75,0,0,1,3.4,3.3,9.5,9.5,0,0,1,1.2,4.8V72H35.7V50.1a2.13,2.13,0,0,0-.3-1.2,2,2,0,0,0-.9-.9,2.55,2.55,0,0,0-2.4,0,2,2,0,0,0-.9.9,2.66,2.66,0,0,0-.3,1.2V63.3a8.87,8.87,0,0,1-4.7,8.1,8.5,8.5,0,0,1-1.48.61h77.12V-.45ZM70.4,58.4a10.44,10.44,0,0,1-4,3.8,11.52,11.52,0,0,1-5.5,1.4H55.2V72H48V41.9H60.9a11.24,11.24,0,0,1,5.5,1.4,10.43,10.43,0,0,1,5.5,9.4A11,11,0,0,1,70.4,58.4ZM101.8,72H94.6V59.7H82.9V72H75.7V41.9h7.2V53.7H94.6V41.9h7.2Z" transform="translate(0 0.45)"/><path class="cls-3" d="M16.7,71.3a8.73,8.73,0,0,1-3.4-3.2A9.66,9.66,0,0,1,12,63.2V50.1a2.13,2.13,0,0,0-.3-1.2,2,2,0,0,0-.9-.9,2.66,2.66,0,0,0-1.2-.3,2.13,2.13,0,0,0-1.2.3,2,2,0,0,0-.9.9,2.66,2.66,0,0,0-.3,1.2V72H18.42A10.58,10.58,0,0,1,16.7,71.3Z" transform="translate(0 0.45)"/><path class="cls-3" d="M62.4,48.4a4.65,4.65,0,0,0-2.3-.6H55.2v9.7h4.9a4.65,4.65,0,0,0,2.3-.6,4.36,4.36,0,0,0,1.7-1.6,5.93,5.93,0,0,0,0-5.2A4.62,4.62,0,0,0,62.4,48.4Z" transform="translate(0 0.45)"/></svg>